<?xml version="1.0" encoding="utf-8"?>
<!DOCTYPE svg PUBLIC "-//W3C//DTD SVG 1.1//EN" "http://www.w3.org/Graphics/SVG/1.1/DTD/svg11.dtd">
<svg version="1.1" xmlns="http://www.w3.org/2000/svg" width="210mm" height="297mm" viewBox="-1 -1 99 140">
	<style>
		use {
			fill: none;
			stroke: #000000;
			stroke-width: 1;
			stroke-linecap: square;
			stroke-linejoin: miter;
			stroke-miterlimit: 3;
		}
		text {
			font-family: Georgia, serif;
			font-size: 10pt;
			alignment-baseline: hanging;
		}
	</style>
	<use href="ko.svg#char" x="0" y="0" />
	<text x="15" y="0">k</text>
	<use href="tu.svg#char" x="33" y="0" />
	<text x="48" y="0">t</text>
	<use href="pa.svg#char" x="66" y="0" />
	<text x="81" y="0">p</text>
	<use href="gr.svg#char" x="0" y="14" />
	<text x="15" y="14">g</text>
	<use href="de.svg#char" x="33" y="14" />
	<text x="48" y="14">d</text>
	<use href="bi.svg#char" x="66" y="14" />
	<text x="81" y="14">b</text>
	<use href="hu.svg#char" x="0" y="28" />
	<text x="15" y="28">x</text>
	<use href="thr.svg#char" x="33" y="28" />
	<text x="48" y="28">θ</text>
	<use href="fe.svg#char" x="66" y="28" />
	<text x="81" y="28">ɸ</text>
	<use href="yi.svg#char" x="0" y="42" />
	<text x="15" y="42">ɣ</text>
	<use href="dha.svg#char" x="33" y="42" />
	<text x="48" y="42">ð</text>
	<use href="vo.svg#char" x="66" y="42" />
	<text x="81" y="42">β</text>
	<use href="nga.svg#char" x="0" y="56" />
	<text x="15" y="56">ŋ</text>
	<use href="ne.svg#char" x="33" y="56" />
	<text x="48" y="56">n</text>
	<use href="mo.svg#char" x="66" y="56" />
	<text x="81" y="56">m</text>
	<use href="she.svg#char" x="0" y="70" />
	<text x="15" y="70">ʂ</text>
	<use href="ssa.svg#char" x="33" y="70" />
	<text x="48" y="70">ʃ</text>
	<use href="si.svg#char" x="66" y="70" />
	<text x="81" y="70">s</text>
	<use href="zhr.svg#char" x="0" y="84" />
	<text x="15" y="84">ʐ</text>
	<use href="jo.svg#char" x="33" y="84" />
	<text x="48" y="84">ʒ</text>
	<use href="zu.svg#char" x="66" y="84" />
	<text x="81" y="84">z</text>
	<use href="ar.svg#char" x="0" y="98" />
	<text x="15" y="98">a</text>
	<use href="ey.svg#char" x="33" y="98" />
	<text x="48" y="98">e</text>
	<use href="ou.svg#char" x="66" y="98" />
	<text x="81" y="98">o</text>
	<use href="rm.svg#char" x="0" y="112" />
	<text x="15" y="112">ɹ</text>
	<use href="iz.svg#char" x="33" y="112" />
	<text x="48" y="112">i</text>
	<use href="uss.svg#char" x="66" y="112" />
	<text x="81" y="112">u</text>
	<use href="al.svg#char" x="0" y="126" />
	<text x="15" y="126">l</text>
</svg>
