<?xml version="1.0" encoding="utf-8"?>
<!DOCTYPE svg PUBLIC "-//W3C//DTD SVG 1.1//EN" "http://www.w3.org/Graphics/SVG/1.1/DTD/svg11.dtd">
<svg version="1.1" xmlns="http://www.w3.org/2000/svg" width="148mm" height="105mm"  viewBox="-1 -1 56 42">
	<style>
		path {
			fill: none;
			stroke: #000000;
			stroke-width: 1;
			stroke-linecap: round;
			stroke-linejoin: round;
		}
		text {
			font-family: Georgia, serif;
			font-size: 2pt;
			alignment-baseline: hanging;
		}
	</style>
	<g class="de" transform="translate(0,0)">
		<path id="char" d="M 12,0 L 2,8 C -3,12, 8,14, 4,8" />
	</g>
	<g class="jo" transform="translate(0,14)">
		<path id="char" d="M 8,0 L 0,12 M 12,0 L 6,9 C 2,15, 13,12, 8,9" />
	</g>
	<g class="ar" transform="translate(0,28)">
		<path id="char" d="M 2,12 L 2,5 C 2,-1, 10,-1, 10,5 L 10,12" />
	</g>
	<g class="si" transform="translate(21,0)">
		<path id="char" d="M 6,0 L 0,12 L 12,12 M 6,0 L 12,12" />
	</g>
	<g class="tu" transform="translate(21,14)">
		<path id="char" d="M 12,0 L 0,12" />
	</g>
	<g class="iz" transform="translate(21,28)">
		<path id="char" d="M 1,5 C 1,-1, 9,-1, 9,5 L 9,7 C 9,13, 1,13, 1,7 L 1,5 L 12,12" />
	</g>
	<g class="zu" transform="translate(42,0)">
		<path id="char" d="M 6,0 L 0,12 L 6,8 C 12,4, 9,15, 6,10 M 6,0 L 12,12" />
	</g>
	<g class="rm" transform="translate(42,14)">
		<path id="char" d="M 0,12 L 0,5 C 0,-1, 8,-1, 8,5 L 8,12 L 12,6" />
	</g>
	<g class="si" transform="translate(42,28)">
		<path id="char" d="M 6,0 L 0,12 L 12,12 M 6,0 L 12,12" />
	</g>
</svg>
