
<svg xmlns:dc="http://purl.org/dc/elements/1.1/" xmlns:cc="http://creativecommons.org/ns#" xmlns:rdf="http://www.w3.org/1999/02/22-rdf-syntax-ns#" xmlns:svg="http://www.w3.org/2000/svg" xmlns="http://www.w3.org/2000/svg" width="1018" height="648" viewBox="-3.141593 -1 6.283186 2">
	<metadata>
		<rdf:RDF>
			<cc:work>
				<rdf:Description about="https://github.com/jkunimune15/Map-Projections/" dc:title="flag te castisu TODO:translate flag" dc:creator="Justin Kunimune" dc:date="2018-05-07" dc:format="image/svg+xml">
				</rdf:Description>
			</cc:work>
			<cc:License>
				<cc:permits rdf:resource="http://web.resource.org/cc/Reproduction"></cc:permits>
				<cc:permits rdf:resource="http://web.resource.org/cc/Distribution"></cc:permits>
				<cc:permits rdf:resource="http://web.resource.org/cc/DerivativeWorks"></cc:permits>
				<cc:permits rdf:resource="http://web.resource.org/cc/Sharing"></cc:permits>
				<cc:requires rdf:resource="http://web.resource.org/cc/Attribution"></cc:requires>
				<cc:requires rdf:resource="http://web.resource.org/cc/ShareAlike"></cc:requires>
			</cc:License>
		</rdf:RDF>
	</metadata>
	<title>flag te castisu TODO:here too</title>
	<rect fill="#f1f2f0" x="-3.141593" y="-2.000000" width="6.283185" height="4.000000"></rect>
	<path fill="#0bc3c3" d=" M-3.142,0 L-3.113328,-0.028261 L-3.085063,-0.056499 L-3.056798,-0.084693 L-3.028533,-0.112818 L-3.000269,-0.140854 L-2.972004,-0.168777 L-2.943739,-0.196565 L-2.915474,-0.224196 L-2.887209,-0.251648 L-2.858945,-0.278900 L-2.830680,-0.305928 L-2.802415,-0.332712 L-2.774150,-0.359230 L-2.745886,-0.385461 L-2.717621,-0.411384 L-2.689356,-0.436979 L-2.661091,-0.462224 L-2.632826,-0.487100 L-2.604562,-0.511587 L-2.576297,-0.535666 L-2.548032,-0.559316 L-2.519767,-0.582520 L-2.491502,-0.605258 L-2.463238,-0.627513 L-2.434973,-0.649267 L-2.406708,-0.670502 L-2.378443,-0.691201 L-2.350178,-0.711348 L-2.321914,-0.730927 L-2.293649,-0.749922 L-2.265384,-0.768318 L-2.237119,-0.786100 L-2.208854,-0.803254 L-2.180590,-0.819766 L-2.152325,-0.835624 L-2.124060,-0.850814 L-2.095795,-0.865325 L-2.067530,-0.879144 L-2.039266,-0.892260 L-2.011001,-0.904665 L-1.982736,-0.916346 L-1.954471,-0.927295 L-1.926206,-0.937504 L-1.897942,-0.946964 L-1.869677,-0.955667 L-1.841412,-0.963606 L-1.813147,-0.970776 L-1.784882,-0.977171 L-1.756618,-0.982785 L-1.728353,-0.987614 L-1.700088,-0.991653 L-1.671823,-0.994901 L-1.643558,-0.997354 L-1.615294,-0.999010 L-1.587029,-0.999868 L-1.558764,-0.999928 L-1.530499,-0.999188 L-1.502234,-0.997651 L-1.473970,-0.995316 L-1.445705,-0.992186 L-1.417440,-0.988264 L-1.389175,-0.983552 L-1.360911,-0.978055 L-1.332646,-0.971776 L-1.304381,-0.964721 L-1.276116,-0.956895 L-1.247851,-0.948305 L-1.219587,-0.938957 L-1.191322,-0.928859 L-1.163057,-0.918020 L-1.134792,-0.906446 L-1.106527,-0.894149 L-1.078263,-0.881138 L-1.049998,-0.867422 L-1.021733,-0.853014 L-0.993468,-0.837924 L-0.965203,-0.822165 L-0.936939,-0.805749 L-0.908674,-0.788689 L-0.880409,-0.770999 L-0.852144,-0.752694 L-0.823879,-0.733787 L-0.795615,-0.714294 L-0.767350,-0.694230 L-0.739085,-0.673612 A1.000000,1.000000,0.000000,1,1,0.739085,0.673612 L-0.739085,-0.673612 A1.000000,1.000000,0.000000,1,0,0.739085,0.673612 L0.767350,0.694230 L0.795615,0.714294 L0.823879,0.733787 L0.852144,0.752694 L0.880409,0.770999 L0.908674,0.788689 L0.936939,0.805749 L0.965203,0.822165 L0.993468,0.837924 L1.021733,0.853014 L1.049998,0.867422 L1.078263,0.881138 L1.106527,0.894149 L1.134792,0.906446 L1.163057,0.918020 L1.191322,0.928859 L1.219587,0.938957 L1.247851,0.948305 L1.276116,0.956895 L1.304381,0.964721 L1.332646,0.971776 L1.360911,0.978055 L1.389175,0.983552 L1.417440,0.988264 L1.445705,0.992186 L1.473970,0.995316 L1.502234,0.997651 L1.530499,0.999188 L1.558764,0.999928 L1.587029,0.999868 L1.615294,0.999010 L1.643558,0.997354 L1.671823,0.994901 L1.700088,0.991653 L1.728353,0.987614 L1.756618,0.982785 L1.784882,0.977171 L1.813147,0.970776 L1.841412,0.963606 L1.869677,0.955667 L1.897942,0.946964 L1.926206,0.937504 L1.954471,0.927295 L1.982736,0.916346 L2.011001,0.904665 L2.039266,0.892260 L2.067530,0.879144 L2.095795,0.865325 L2.124060,0.850814 L2.152325,0.835624 L2.180590,0.819766 L2.208854,0.803254 L2.237119,0.786100 L2.265384,0.768318 L2.293649,0.749922 L2.321914,0.730927 L2.350178,0.711348 L2.378443,0.691201 L2.406708,0.670502 L2.434973,0.649267 L2.463238,0.627513 L2.491502,0.605258 L2.519767,0.582520 L2.548032,0.559316 L2.576297,0.535666 L2.604562,0.511587 L2.632826,0.487100 L2.661091,0.462224 L2.689356,0.436979 L2.717621,0.411384 L2.745886,0.385461 L2.774150,0.359230 L2.802415,0.332712 L2.830680,0.305928 L2.858945,0.278900 L2.887209,0.251648 L2.915474,0.224196 L2.943739,0.196565 L2.972004,0.168777 L3.000269,0.140854 L3.028533,0.112818 L3.056798,0.084693 L3.085063,0.056499 L3.113328,0.028261 L3.141593,0.000000 L3.141593,2.000000 L-3.141593,2.000000 "></path>
	<path fill="#fcac73" d=" M0.739085,0.673612 L0.111563,0.350555 L-0.213823,0.976872 L-0.247808,0.271894 L-0.952908,0.303260 L-0.359371,-0.078661 L-0.739085,-0.673612 L-0.111563,-0.350555 L0.213823,-0.976872 L0.247808,-0.271894 L0.952908,-0.303260 L0.359371,0.078661 L0.739085,0.673612 "></path>
</svg>
